<mxfile host="Electron" modified="2024-05-02T12:35:09.031Z" agent="Mozilla/5.0 (Windows NT 10.0; Win64; x64) AppleWebKit/537.36 (KHTML, like Gecko) draw.io/24.2.5 Chrome/120.0.6099.109 Electron/28.1.0 Safari/537.36" etag="DjGh0405gjqmaUt4wzfq" version="24.2.5" type="device">
  <diagram id="C5RBs43oDa-KdzZeNtuy" name="Page-1">
    <mxGraphModel dx="1290" dy="629" grid="1" gridSize="10" guides="1" tooltips="1" connect="1" arrows="1" fold="1" page="1" pageScale="1" pageWidth="827" pageHeight="1169" math="0" shadow="0">
      <root>
        <mxCell id="WIyWlLk6GJQsqaUBKTNV-0" />
        <mxCell id="WIyWlLk6GJQsqaUBKTNV-1" parent="WIyWlLk6GJQsqaUBKTNV-0" />
        <mxCell id="BGxrsZBSv8gtlbLVIidH-12" style="edgeStyle=orthogonalEdgeStyle;rounded=0;orthogonalLoop=1;jettySize=auto;html=1;entryX=0.5;entryY=0;entryDx=0;entryDy=0;" parent="WIyWlLk6GJQsqaUBKTNV-1" source="BGxrsZBSv8gtlbLVIidH-0" target="BGxrsZBSv8gtlbLVIidH-5" edge="1">
          <mxGeometry relative="1" as="geometry" />
        </mxCell>
        <mxCell id="BGxrsZBSv8gtlbLVIidH-0" value="START" style="ellipse;whiteSpace=wrap;html=1;fillColor=#FFFF00;" parent="WIyWlLk6GJQsqaUBKTNV-1" vertex="1">
          <mxGeometry x="90" y="90" width="140" height="60" as="geometry" />
        </mxCell>
        <mxCell id="BGxrsZBSv8gtlbLVIidH-1" value="STOP" style="ellipse;whiteSpace=wrap;html=1;fillColor=#FFFF00;" parent="WIyWlLk6GJQsqaUBKTNV-1" vertex="1">
          <mxGeometry x="90" y="670" width="140" height="60" as="geometry" />
        </mxCell>
        <mxCell id="BGxrsZBSv8gtlbLVIidH-13" style="edgeStyle=orthogonalEdgeStyle;rounded=0;orthogonalLoop=1;jettySize=auto;html=1;exitX=0.5;exitY=1;exitDx=0;exitDy=0;entryX=0.5;entryY=0;entryDx=0;entryDy=0;" parent="WIyWlLk6GJQsqaUBKTNV-1" source="BGxrsZBSv8gtlbLVIidH-5" target="BGxrsZBSv8gtlbLVIidH-6" edge="1">
          <mxGeometry relative="1" as="geometry" />
        </mxCell>
        <mxCell id="BGxrsZBSv8gtlbLVIidH-5" value="BE: A" style="shape=parallelogram;perimeter=parallelogramPerimeter;whiteSpace=wrap;html=1;fixedSize=1;fillColor=#00FF00;" parent="WIyWlLk6GJQsqaUBKTNV-1" vertex="1">
          <mxGeometry x="85" y="190" width="150" height="40" as="geometry" />
        </mxCell>
        <mxCell id="BGxrsZBSv8gtlbLVIidH-14" style="edgeStyle=orthogonalEdgeStyle;rounded=0;orthogonalLoop=1;jettySize=auto;html=1;exitX=0.5;exitY=1;exitDx=0;exitDy=0;entryX=0.5;entryY=0;entryDx=0;entryDy=0;" parent="WIyWlLk6GJQsqaUBKTNV-1" source="BGxrsZBSv8gtlbLVIidH-6" target="BGxrsZBSv8gtlbLVIidH-9" edge="1">
          <mxGeometry relative="1" as="geometry" />
        </mxCell>
        <mxCell id="BGxrsZBSv8gtlbLVIidH-6" value="BE: B" style="shape=parallelogram;perimeter=parallelogramPerimeter;whiteSpace=wrap;html=1;fixedSize=1;fillColor=#00FF00;" parent="WIyWlLk6GJQsqaUBKTNV-1" vertex="1">
          <mxGeometry x="85" y="260" width="150" height="40" as="geometry" />
        </mxCell>
        <mxCell id="BGxrsZBSv8gtlbLVIidH-17" style="edgeStyle=orthogonalEdgeStyle;rounded=0;orthogonalLoop=1;jettySize=auto;html=1;exitX=0.5;exitY=1;exitDx=0;exitDy=0;entryX=0.5;entryY=0;entryDx=0;entryDy=0;" parent="WIyWlLk6GJQsqaUBKTNV-1" source="BGxrsZBSv8gtlbLVIidH-7" target="BGxrsZBSv8gtlbLVIidH-8" edge="1">
          <mxGeometry relative="1" as="geometry" />
        </mxCell>
        <mxCell id="BGxrsZBSv8gtlbLVIidH-7" value="KI: terulet" style="shape=parallelogram;perimeter=parallelogramPerimeter;whiteSpace=wrap;html=1;fixedSize=1;fillColor=#00FF00;" parent="WIyWlLk6GJQsqaUBKTNV-1" vertex="1">
          <mxGeometry x="85" y="520" width="150" height="40" as="geometry" />
        </mxCell>
        <mxCell id="BGxrsZBSv8gtlbLVIidH-18" style="edgeStyle=orthogonalEdgeStyle;rounded=0;orthogonalLoop=1;jettySize=auto;html=1;exitX=0.5;exitY=1;exitDx=0;exitDy=0;entryX=0.5;entryY=0;entryDx=0;entryDy=0;" parent="WIyWlLk6GJQsqaUBKTNV-1" source="BGxrsZBSv8gtlbLVIidH-8" target="BGxrsZBSv8gtlbLVIidH-1" edge="1">
          <mxGeometry relative="1" as="geometry" />
        </mxCell>
        <mxCell id="BGxrsZBSv8gtlbLVIidH-8" value="KI: kerulet" style="shape=parallelogram;perimeter=parallelogramPerimeter;whiteSpace=wrap;html=1;fixedSize=1;fillColor=#00FF00;" parent="WIyWlLk6GJQsqaUBKTNV-1" vertex="1">
          <mxGeometry x="85" y="600" width="150" height="40" as="geometry" />
        </mxCell>
        <mxCell id="BGxrsZBSv8gtlbLVIidH-15" style="edgeStyle=orthogonalEdgeStyle;rounded=0;orthogonalLoop=1;jettySize=auto;html=1;exitX=0.5;exitY=1;exitDx=0;exitDy=0;entryX=0.5;entryY=0;entryDx=0;entryDy=0;" parent="WIyWlLk6GJQsqaUBKTNV-1" source="BGxrsZBSv8gtlbLVIidH-9" target="BGxrsZBSv8gtlbLVIidH-10" edge="1">
          <mxGeometry relative="1" as="geometry" />
        </mxCell>
        <mxCell id="BGxrsZBSv8gtlbLVIidH-9" value="terulet := A*B" style="rounded=0;whiteSpace=wrap;html=1;fillColor=#FFB570;" parent="WIyWlLk6GJQsqaUBKTNV-1" vertex="1">
          <mxGeometry x="80" y="340" width="160" height="50" as="geometry" />
        </mxCell>
        <mxCell id="BGxrsZBSv8gtlbLVIidH-16" style="edgeStyle=orthogonalEdgeStyle;rounded=0;orthogonalLoop=1;jettySize=auto;html=1;exitX=0.5;exitY=1;exitDx=0;exitDy=0;entryX=0.5;entryY=0;entryDx=0;entryDy=0;" parent="WIyWlLk6GJQsqaUBKTNV-1" source="BGxrsZBSv8gtlbLVIidH-10" target="BGxrsZBSv8gtlbLVIidH-7" edge="1">
          <mxGeometry relative="1" as="geometry" />
        </mxCell>
        <mxCell id="BGxrsZBSv8gtlbLVIidH-10" value="kerulet := 2*A + 2*B" style="rounded=0;whiteSpace=wrap;html=1;fillColor=#FFB570;" parent="WIyWlLk6GJQsqaUBKTNV-1" vertex="1">
          <mxGeometry x="80" y="420" width="160" height="50" as="geometry" />
        </mxCell>
      </root>
    </mxGraphModel>
  </diagram>
</mxfile>
